<?xml version="1.0" encoding="UTF-8" standalone="no"?>
<!DOCTYPE svg PUBLIC "-//W3C//DTD SVG 1.1//EN" "http://www.w3.org/Graphics/SVG/1.1/DTD/svg11.dtd">
<svg width="100%" height="100%" viewBox="0 0 1000 1000" version="1.1" xmlns="http://www.w3.org/2000/svg" xmlns:xlink="http://www.w3.org/1999/xlink" xml:space="preserve" xmlns:serif="http://www.serif.com/" style="fill-rule:evenodd;clip-rule:evenodd;stroke-linejoin:round;stroke-miterlimit:2;">
    <g id="Capa1">
        <rect id="rect132" x="0" y="0" width="1000" height="1000" style="fill:white;"/>
    </g>
    <g transform="matrix(18.1912,0,0,16.7054,-7108.34,-5979.68)">
        <g id="g137">
            <path id="path135" d="M414.531,401.967L414.531,390.614L405.791,377.064C405.026,375.843 404.485,374.891 404.168,374.208C403.85,373.524 403.692,372.93 403.692,372.425C403.692,371.595 404.013,370.879 404.656,370.277C405.299,369.675 406.092,369.374 407.036,369.374C408.029,369.374 408.782,369.654 409.295,370.216C409.807,370.778 410.576,371.897 411.602,373.573L418.291,384.437L425.054,373.573C425.461,372.906 425.803,372.344 426.079,371.888C426.356,371.433 426.661,371.005 426.995,370.607C427.328,370.208 427.699,369.903 428.106,369.691C428.512,369.48 429.009,369.374 429.595,369.374C430.506,369.374 431.267,369.671 431.878,370.265C432.488,370.859 432.793,371.547 432.793,372.328C432.793,372.963 432.638,373.597 432.329,374.232C432.02,374.867 431.491,375.746 430.742,376.869L421.782,390.614L421.782,401.967C421.782,403.448 421.441,404.554 420.757,405.287C420.073,406.019 419.203,406.385 418.145,406.385C417.07,406.385 416.2,406.023 415.532,405.299C414.865,404.575 414.531,403.464 414.531,401.967Z" style="fill-rule:nonzero;"/>
        </g>
    </g>
</svg>
