<?xml version="1.0" encoding="UTF-8" standalone="no"?>
<svg
   xmlns:dc="http://purl.org/dc/elements/1.1/"
   xmlns:cc="http://creativecommons.org/ns#"
   xmlns:rdf="http://www.w3.org/1999/02/22-rdf-syntax-ns#"
   xmlns:svg="http://www.w3.org/2000/svg"
   xmlns="http://www.w3.org/2000/svg"
   xmlns:sodipodi="http://sodipodi.sourceforge.net/DTD/sodipodi-0.dtd"
   xmlns:inkscape="http://www.inkscape.org/namespaces/inkscape"
   version="1.1"
   x="0px"
   y="0px"
   viewBox="0 0 87 107"
   enable-background="new 0 0 100 100"
   xml:space="preserve"
   id="svg8"
   sodipodi:docname="hand.svg"
   width="87"
   height="107"
   inkscape:version="0.92.4 5da689c313, 2019-01-14"><metadata
     id="metadata14"><rdf:RDF><cc:Work
         rdf:about=""><dc:format>image/svg+xml</dc:format><dc:type
           rdf:resource="http://purl.org/dc/dcmitype/StillImage" /><dc:title /></cc:Work></rdf:RDF></metadata><defs
     id="defs12" /><sodipodi:namedview
     pagecolor="#ffffff"
     bordercolor="#666666"
     borderopacity="1"
     objecttolerance="10"
     gridtolerance="10"
     guidetolerance="10"
     inkscape:pageopacity="0"
     inkscape:pageshadow="2"
     inkscape:window-width="1920"
     inkscape:window-height="1043"
     id="namedview10"
     showgrid="false"
     inkscape:zoom="5.3400704"
     inkscape:cx="66.04171"
     inkscape:cy="33.45795"
     inkscape:window-x="0"
     inkscape:window-y="0"
     inkscape:window-maximized="1"
     inkscape:current-layer="svg8" /><path
     d="m 64.884319,30.082314 c -1.260688,-2.378056 -3.645126,-3.287497 -6.466263,-3.413582 -2.742628,-0.122577 -5.323974,1.141537 -6.844338,3.109499 -2.146099,-3.707216 -5.018827,-3.582704 -7.335193,-3.577819 -2.522958,0.0053 -4.748254,1.142891 -6.050273,2.87542 V 12.402384 c 0,-3.5410346 -3.256257,-7.0828106 -7.260327,-7.0828106 -4.00407,0 -7.260327,3.541776 -7.260327,7.0828106 v 42.643817 c -3.44098,-2.777986 -7.296519,-6.871864 -11.585322,-6.92923 -3.510099,-0.022 -5.24538,1.376342 -6.458653,3.997591 -1.1180138,2.415443 -0.3977456,5.21339 1.612385,7.046076 7.836106,9.112754 14.146367,10.554142 17.664635,20.599052 1.63043,5.659413 1.115664,9.162041 1.115664,17.510423 h 45.498938 c 0,-8.645338 -1.686497,-14.776061 3.480119,-20.570974 4.366569,-4.897575 3.897335,-26.175857 3.948606,-40.812416 0.02168,-6.189524 -3.797095,-8.549804 -7.260327,-8.726644 -3.065674,-0.15654 -5.31926,0.947176 -6.799324,2.922235 z"
     id="path2"
     inkscape:connector-curvature="0"
     style="opacity:1;stroke:#fffbff;stroke-width:9.10351849;stroke-miterlimit:4;stroke-dasharray:none;stroke-opacity:1;paint-order:markers stroke fill"
     sodipodi:nodetypes="cscscsssccsccccscsc" /></svg>