<?xml version="1.0" encoding="UTF-8" standalone="no"?>
<svg
   xmlns:dc="http://purl.org/dc/elements/1.1/"
   xmlns:cc="http://creativecommons.org/ns#"
   xmlns:rdf="http://www.w3.org/1999/02/22-rdf-syntax-ns#"
   xmlns:svg="http://www.w3.org/2000/svg"
   xmlns="http://www.w3.org/2000/svg"
   xmlns:sodipodi="http://sodipodi.sourceforge.net/DTD/sodipodi-0.dtd"
   xmlns:inkscape="http://www.inkscape.org/namespaces/inkscape"
   version="1.1"
   x="0px"
   y="0px"
   viewBox="0 0 87 107"
   enable-background="new 0 0 100 100"
   xml:space="preserve"
   id="svg8"
   sodipodi:docname="hand.svg"
   width="87"
   height="107"
   inkscape:version="0.92.4 5da689c313, 2019-01-14"><metadata
     id="metadata14"><rdf:RDF><cc:Work
         rdf:about=""><dc:format>image/svg+xml</dc:format><dc:type
           rdf:resource="http://purl.org/dc/dcmitype/StillImage" /><dc:title /></cc:Work></rdf:RDF></metadata><defs
     id="defs12" /><sodipodi:namedview
     pagecolor="#ffffff"
     bordercolor="#666666"
     borderopacity="1"
     objecttolerance="10"
     gridtolerance="10"
     guidetolerance="10"
     inkscape:pageopacity="0"
     inkscape:pageshadow="2"
     inkscape:window-width="1920"
     inkscape:window-height="1043"
     id="namedview10"
     showgrid="false"
     inkscape:zoom="5.3400704"
     inkscape:cx="66.6035"
     inkscape:cy="33.45795"
     inkscape:window-x="0"
     inkscape:window-y="0"
     inkscape:window-maximized="1"
     inkscape:current-layer="svg8" /><path
     d="m 40.449254,18.94615 c -0.781771,-1.474666 -2.260394,-2.038623 -4.009821,-2.11681 -1.700743,-0.07601 -3.301472,0.707883 -4.244271,1.928244 -1.330826,-2.298897 -3.112246,-2.221685 -4.548657,-2.218656 -1.564522,0.0033 -2.94446,0.708723 -3.75186,1.783089 V 7.9825755 c 0,-2.1958456 -2.019251,-4.392151 -4.502231,-4.392151 -2.482981,0 -4.502232,2.1963054 -4.502232,4.392151 V 34.42661 c -2.1338,-1.722669 -4.524675,-4.26134 -7.184222,-4.296914 -2.176662,-0.01364 -3.2527343,0.853489 -4.0051021,2.478963 -0.6932962,1.49785 -0.2466477,3.232897 0.9998628,4.369371 4.8592802,5.650948 8.7723623,6.544773 10.9540903,12.773764 1.011052,3.509482 0.691839,5.681511 0.691839,10.858461 h 28.214535 c 0,-5.361096 -1.045821,-9.162845 2.158071,-12.756352 2.707771,-3.037056 2.416793,-16.232019 2.448586,-25.308357 0.01344,-3.838211 -2.354632,-5.301854 -4.502231,-5.411515 -1.901068,-0.09707 -3.298548,0.587357 -4.216357,1.812119 z"
     id="path2"
     inkscape:connector-curvature="0"
     style="opacity:1;stroke:#fffbff;stroke-width:5.64522076;stroke-miterlimit:4;stroke-dasharray:none;stroke-opacity:1;paint-order:markers stroke fill"
     sodipodi:nodetypes="cscscsssccsccccscsc" /></svg>