<?xml version="1.0" encoding="UTF-8" standalone="no"?>
<!-- Created with Inkscape (http://www.inkscape.org/) -->

<svg
   xmlns:dc="http://purl.org/dc/elements/1.1/"
   xmlns:cc="http://creativecommons.org/ns#"
   xmlns:rdf="http://www.w3.org/1999/02/22-rdf-syntax-ns#"
   xmlns:svg="http://www.w3.org/2000/svg"
   xmlns="http://www.w3.org/2000/svg"
   xmlns:sodipodi="http://sodipodi.sourceforge.net/DTD/sodipodi-0.dtd"
   xmlns:inkscape="http://www.inkscape.org/namespaces/inkscape"
   width="1080"
   height="1080"
   viewBox="0 0 285.75001 285.75001"
   version="1.1"
   id="svg8"
   inkscape:version="0.92.3 (2405546, 2018-03-11)"
   sodipodi:docname="heart-concept.svg">
  <defs
     id="defs2">
    <inkscape:path-effect
       effect="perspective-envelope"
       up_left_point="120.08402,149.1935"
       up_right_point="165.66597,149.1935"
       down_left_point="119.88,206.68146"
       down_right_point="165.66597,206.68146"
       id="path-effect960"
       is_visible="true"
       deform_type="envelope_deformation"
       horizontal_mirror="false"
       vertical_mirror="false"
       overflow_perspective="false" />
  </defs>
  <sodipodi:namedview
     id="base"
     pagecolor="#ffffff"
     bordercolor="#666666"
     borderopacity="1.0"
     inkscape:pageopacity="0.0"
     inkscape:pageshadow="2"
     inkscape:zoom="1.0109008"
     inkscape:cx="487.54924"
     inkscape:cy="667.96612"
     inkscape:document-units="mm"
     inkscape:current-layer="g4524"
     showgrid="false"
     units="px"
     inkscape:showpageshadow="false"
     showborder="true"
     inkscape:pagecheckerboard="false"
     inkscape:window-width="1920"
     inkscape:window-height="1043"
     inkscape:window-x="0"
     inkscape:window-y="0"
     inkscape:window-maximized="1"
     inkscape:snap-center="true">
    <inkscape:grid
       type="xygrid"
       id="grid815"
       empspacing="45" />
  </sodipodi:namedview>
  <metadata
     id="metadata5">
    <rdf:RDF>
      <cc:Work
         rdf:about="">
        <dc:format>image/svg+xml</dc:format>
        <dc:type
           rdf:resource="http://purl.org/dc/dcmitype/StillImage" />
        <dc:title />
      </cc:Work>
    </rdf:RDF>
  </metadata>
  <g
     inkscape:groupmode="layer"
     id="layer3"
     inkscape:label="Layer 1"
     transform="translate(0,-11.249983)"
     style="display:none"
     sodipodi:insensitive="true">
    <path
       style="display:inline;opacity:1;fill:#e1e6e0;fill-opacity:1;stroke:none;stroke-width:2.35957694;stroke-linecap:round;stroke-linejoin:round;stroke-miterlimit:4;stroke-dasharray:none;stroke-opacity:1"
       d="m 64.9073,66.128482 c -5.524141,0.08079 -10.799343,2.31123 -14.705871,6.217859 -8.292946,8.293196 -8.292946,21.73886 0,30.032049 l 15.016491,15.0165 17.219396,17.2194 c 0,0 6.285042,6.43784 12.753303,6.43784 6.468281,0 13.251991,-6.81781 13.251991,-6.81781 l 16.83943,-16.83943 15.01651,-15.0165 c 8.29296,-8.293189 8.29296,-21.738853 0,-30.032049 -8.29319,-8.292953 -21.73887,-8.292953 -30.03207,0 L 95.249987,87.362836 80.233499,72.346341 C 76.17496,68.287713 70.646382,66.044762 64.9073,66.128482 Z"
       id="path8-3"
       inkscape:connector-curvature="0"
       inkscape:export-xdpi="96"
       inkscape:export-ydpi="96"
       sodipodi:nodetypes="ccccczcccccccc" />
  </g>
  <g
     inkscape:label="Capa 1"
     inkscape:groupmode="layer"
     id="layer1"
     transform="translate(0,-11.249983)"
     style="display:inline">
    <g
       id="heart"
       transform="matrix(1.0849092,0,0,1.0849092,-8.0876053,-9.0428459)"
       inkscape:export-xdpi="96"
       inkscape:export-ydpi="96">
      <g
         id="g4524">
        <path
           style="opacity:1;fill:#ff7d41;fill-opacity:1;stroke:none;stroke-width:2.45453787;stroke-linecap:round;stroke-linejoin:round;stroke-miterlimit:4;stroke-dasharray:none;stroke-opacity:1"
           d="m 70.606273,71.805011 c -5.746464,0.08405 -11.233966,2.404245 -15.297712,6.468095 -8.626695,8.626956 -8.626695,22.613734 0,31.240694 9.09477,9.57922 21.852167,21.57991 26.590499,26.18211 4.738333,4.6022 8.988352,6.69693 13.266567,6.69693 4.278215,0 9.219393,-2.85564 13.785313,-7.09219 4.56593,-4.23656 17.32975,-16.37322 26.59233,-26.20727 8.62669,-8.62695 8.62669,-22.613735 0,-31.240691 -8.62696,-8.626703 -22.61375,-8.626703 -31.24071,0 l -9.075187,8.690134 -8.678106,-8.269717 C 82.327402,74.05114 76.576328,71.717922 70.606273,71.805011 Z"
           id="path8"
           inkscape:connector-curvature="0"
           inkscape:export-xdpi="96"
           inkscape:export-ydpi="96"
           sodipodi:nodetypes="ccczzzcccccc" />
      </g>
    </g>
    <path
       style="fill:#ff0000;fill-opacity:1;stroke:none;stroke-width:1.32291663;stroke-linecap:round;stroke-linejoin:round;stroke-miterlimit:4;stroke-dasharray:none;stroke-opacity:1"
       d="m 191.34749,86.686839 c -3.09716,0.0453 -6.05474,1.295811 -8.24497,3.486095 -4.64951,4.649652 -4.64951,12.188076 0,16.837736 l 2.466,2.46599 c 11.90625,11.90626 11.90625,11.90626 16.83773,16.83773 4.93148,-4.93147 4.93148,-4.93147 16.83773,-16.83773 l 2.466,-2.46599 c 4.64951,-4.64966 4.64951,-12.188084 0,-16.837736 -4.64965,-4.649515 -12.18808,-4.649515 -16.83773,0 l -2.466,2.465999 -2.466,-2.465999 C 197.6648,87.89743 194.56516,86.6399 191.34749,86.686839 Z"
       id="path8-6"
       inkscape:connector-curvature="0"
       sodipodi:nodetypes="cccccccccccc" />
    <path
       inkscape:connector-curvature="0"
       style="fill:#ff0000;fill-opacity:1;stroke:none;stroke-width:1.32291663;stroke-linecap:round;stroke-linejoin:round;stroke-miterlimit:4;stroke-dasharray:none;stroke-opacity:1"
       d="m 178.59271,160.9256 a 11.90625,11.90625 0 0 0 -3.48609,-8.24497 11.90625,11.90625 0 0 0 -16.83773,0 l -8.41913,8.41912 -16.83773,16.83773 16.83773,16.83773 8.41913,8.41912 a 11.90625,11.90625 0 0 0 16.83773,0 11.90625,11.90625 0 0 0 0,-16.83773 l -8.41912,-8.41912 8.41912,-8.41912 a 11.90625,11.90625 0 0 0 3.48609,-8.59276 z"
       id="path8-5" />
    <path
       inkscape:connector-curvature="0"
       style="fill:#008000;fill-opacity:1;stroke:none;stroke-width:1.32291663;stroke-linecap:round;stroke-linejoin:round;stroke-miterlimit:4;stroke-dasharray:none;stroke-opacity:1"
       d="m 120.08529,160.9256 a 11.90625,11.90625 0 0 1 3.48609,-8.24497 11.90625,11.90625 0 0 1 16.83773,0 l 8.41913,8.41912 16.83773,16.83773 -16.83773,16.83773 -8.41913,8.41912 a 11.90625,11.90625 0 0 1 -16.83773,0 11.90625,11.90625 0 0 1 0,-16.83773 l 8.41912,-8.41912 -8.41912,-8.41912 a 11.90625,11.90625 0 0 1 -3.48609,-8.59276 z"
       id="path8-5-3" />
    <path
       style="fill:#ff0000;fill-opacity:1;stroke:none;stroke-width:1.32291663;stroke-linecap:round;stroke-linejoin:round;stroke-miterlimit:4;stroke-dasharray:none;stroke-opacity:1"
       d="m 279.79584,178.78497 c -0.0453,-3.09716 -1.29581,-6.05474 -3.48609,-8.24497 -4.64966,-4.64951 -12.18808,-4.64951 -16.83774,0 l -2.46599,2.466 c -11.90626,11.90625 -11.90626,11.90625 -16.83773,16.83773 4.93147,4.93148 4.93147,4.93148 16.83773,16.83773 l 2.46599,2.466 c 4.64966,4.64951 12.18808,4.64951 16.83774,0 4.64951,-4.64965 4.64951,-12.18808 0,-16.83773 l -2.466,-2.466 2.466,-2.466 c 2.2755,-2.27545 3.53303,-5.37509 3.48609,-8.59276 z"
       id="path8-6-5"
       inkscape:connector-curvature="0"
       sodipodi:nodetypes="cccccccccccc" />
    <path
       style="fill:#ff0000;fill-opacity:1;stroke:none;stroke-width:1.32291663;stroke-linecap:round;stroke-linejoin:round;stroke-miterlimit:4;stroke-dasharray:none;stroke-opacity:1"
       d="m 230.21811,200.90249 c 0.0453,3.09716 1.29581,6.05474 3.48609,8.24497 4.64966,4.64951 12.18808,4.64951 16.83774,0 l 2.46599,-2.466 c 11.90626,-11.90625 11.90626,-11.90625 16.83773,-16.83773 -4.93147,-4.93148 -4.93147,-4.93148 -16.83773,-16.83773 l -2.46599,-2.466 c -4.64966,-4.64951 -12.18808,-4.64951 -16.83774,0 -4.64951,4.64965 -4.64951,12.18808 0,16.83773 l 2.466,2.466 -2.466,2.466 c -2.2755,2.27545 -3.53303,5.37509 -3.48609,8.59276 z"
       id="path8-6-5-6"
       inkscape:connector-curvature="0"
       sodipodi:nodetypes="cccccccccccc" />
  </g>
</svg>
